# xmcd CD database file
#
# Track frame offsets:
#	183
#	12833
#	24378
#	34390
#	48073
#	58358
#	71005
#	84858
#	96490
#	107258
#	118163
#	128998
#	140448
#	151095
#
# Disc length: 2172 seconds
#
# Revision: 0
# Processed by: cddbd v1.4PL0 Copyright (c) Steve Scherf et al.
# Submitted via: CDex 1.40PlusFr
#
DISCID=b5087a0e
DTITLE=Jerry Lee Lewis - The country store collection
DYEAR=1900
DGENRE=Country
TTITLE0=I'm so lonesomme i could cry
TTITLE1=heartaches by the number
TTITLE2=jambalaya
TTITLE3=cold cold heart
TTITLE4=sweet thang
TTITLE5=oh lonesome me
TTITLE6=you win again
TTITLE7=your cheatin' heart
TTITLE8=i love you because
TTITLE9=jackson
TTITLE10=you' ve still got a place in my heart
TTITLE11=pick me up on your way down
TTITLE12=he' ll have to go
TTITLE13=i cant stop loving you
EXTD=ID3G: 2
EXTT0=
EXTT1=
EXTT2=
EXTT3=
EXTT4=
EXTT5=
EXTT6=
EXTT7=
EXTT8=
EXTT9=
EXTT10=
EXTT11=
EXTT12=
EXTT13=
PLAYORDER=
